<svg xmlns="http://www.w3.org/2000/svg" width="48" height="48"><path fill="#FFF" fill-rule="evenodd" d="M40.4 16.1c-3 2.2-4.5 4.7-4.5 7.8 0 3.6 1.9 6.3 5.6 8.3-1 2.9-2.5 5.4-4.4 7.6-1.9 2.1-3.6 3.2-5.2 3.2-.7 0-1.7-.2-3-.7l-.6-.3a9.4 9.4 0 0 0-3.4-.7c-.9 0-1.9.2-3 .6l-.7.2-1 .4c-.8.3-1.5.5-2.3.5-1.9 0-3.9-1.5-6.1-4.5C8.6 34 7 29.4 7 24.3c0-3.7 1-6.6 3-8.8 2-2.2 4.6-3.3 8-3.3 1.2 0 2.3.2 3.4.6l.7.3.8.4c.7.2 1.2.4 1.7.4s1-.1 1.8-.4l1-.4.7-.3c1.2-.4 2.6-.6 4-.6 3.5 0 6.2 1.3 8.3 4zM32.3 3v1c0 2.4-.8 4.4-2.5 6a7.8 7.8 0 0 1-5.8 2.7v-1.1A8 8 0 0 1 26.1 6a8.8 8.8 0 0 1 6-3.1z"/></svg>