<svg xmlns="http://www.w3.org/2000/svg" width="48" height="48"><defs><linearGradient id="a" x1="91.5%" x2="-37.6%" y1="4.8%" y2="72%"><stop offset="0%" stop-color="#00A0FF"/><stop offset=".7%" stop-color="#00A1FF"/><stop offset="26%" stop-color="#00BEFF"/><stop offset="51.2%" stop-color="#00D2FF"/><stop offset="76%" stop-color="#00DFFF"/><stop offset="100%" stop-color="#00E3FF"/></linearGradient><linearGradient id="b" x1="107.7%" x2="-130.7%" y1="49.4%" y2="49.4%"><stop offset="0%" stop-color="#FFE000"/><stop offset="40.9%" stop-color="#FFBD00"/><stop offset="77.5%" stop-color="orange"/><stop offset="100%" stop-color="#FF9C00"/></linearGradient><linearGradient id="c" x1="86.4%" x2="-49.9%" y1="17.8%" y2="194.4%"><stop offset="0%" stop-color="#FF3A44"/><stop offset="100%" stop-color="#C31162"/></linearGradient><linearGradient id="d" x1="-18.6%" x2="42.3%" y1="-54.5%" y2="24.7%"><stop offset="0%" stop-color="#32A071"/><stop offset="6.8%" stop-color="#2DA771"/><stop offset="47.6%" stop-color="#15CF74"/><stop offset="80.1%" stop-color="#06E775"/><stop offset="100%" stop-color="#00F076"/></linearGradient></defs><g fill="none"><path fill="url(#a)" d="M1.6 1c-.6.5-1 1.4-1 2.5v40.8c0 1.1.4 2 1 2.6l.2.2 22.9-23v-.2L1.6 1z" transform="translate(2)"/><path fill="url(#b)" d="M32.2 32l-7.5-7.6v-.6l7.5-7.6.2.2 9 5.2c2.6 1.5 2.6 3.9 0 5.4l-9.2 5z" transform="translate(2)"/><path fill="url(#c)" d="M32.4 31.8L24.7 24 1.6 47c1 1 2.2 1 3.9.3l27-15.5" transform="translate(2)"/><path fill="url(#d)" d="M32.4 16.2L5.4 1c-1.5-1-2.8-.8-3.7.1l23 22.9 7.8-7.8z" transform="translate(2)"/><g fill="#000"><path d="M34.2 31.6L7.5 46.7c-1.5 1-2.8.7-3.7 0l-.2.2.2.2c.9.7 2.2.9 3.7 0l26.7-15.5z" opacity=".2"/><path d="M3.6 46.7c-.6-.5-.8-1.5-.8-2.6v.2c0 1.1.4 2 1 2.6v-.2h-.2z" opacity=".1"/></g><path fill="#000" d="M43.5 26.4l-9.3 5.2.2.2 9-5.2c1.4-.8 2-1.7 2-2.6 0 1-.8 1.7-2 2.4z" opacity=".1"/><path fill="#FFF" d="M7.5 1.1l36 20.5c1 .7 1.8 1.5 1.8 2.4 0-1-.5-1.8-1.8-2.6L7.5 1C4.9-.6 2.8.7 2.8 3.7v.2c0-3 2-4.3 4.7-2.8z" opacity=".3"/></g></svg>