<svg width="22" height="14" xmlns="http://www.w3.org/2000/svg"><path d="M21.95 8.658c-.319-2.127-2.128-3.643-4.181-3.74.513-1.908 1.76-2.666 3.276-3.106.146-.049.122-.195.122-.195L20.923.1s-.025-.122-.22-.098c-5.232.587-8.777 4.572-8.117 9.413.611 3.349 3.227 4.645 5.647 4.302 2.42-.39 4.083-2.64 3.716-5.06zM5.251 4.918C5.74 3.01 7.036 2.251 8.528 1.811c.146-.049.122-.195.122-.195L8.43.1s-.025-.122-.22-.098C2.978.566-.542 4.55.069 9.391c.635 3.374 3.276 4.67 5.672 4.327 2.42-.39 4.082-2.64 3.691-5.06a4.363 4.363 0 0 0-4.18-3.74z" fill="#E2E6E8" fill-rule="evenodd"/></svg>